<svg xmlns="http://www.w3.org/2000/svg" viewBox="0 0 497.8 497.8" xml:space="preserve"><circle style="fill:#08476b" cx="156.8" cy="168.8" r="137.6"/><path transform="scale(-1) rotate(-44.996 -768.24 768.574)" style="fill:#960253" d="M299.54 251.799h37.602v132.808H299.54z"/><path style="fill:#6d0041" d="m257.6 284 26.4-26.4 94.4 93.6"/><path style="fill:#195f8e" d="M488.8 446.4c12 12 12 30.4 0 42.4s-30.4 12-42.4 0L332.8 375.2c-12-12-12-30.4 0-42.4s30.4-12 42.4 0l113.6 113.6z"/><path style="fill:#08476b" d="M332.8 332.8c12-12 30.4-12 42.4 0l113.6 113.6c12 12 12 30.4 0 42.4"/><path style="fill:#c61867" d="M48 48c-64 64-64 168 0 232s168 64 232 0 64-168 0-232-168-64-232 0zm204 204c-48 48-126.4 48-175.2 0-48-48-48-126.4 0-175.2 48-48 126.4-48 175.2 0 48 48 48 126.4 0 175.2z"/><path style="fill:#eaeaea" d="M284.8 160.8c-18.4-40-65.6-71.2-120.8-71.2S61.6 120.8 43.2 160.8h241.6z"/><path style="fill:#c4c4c4" d="M43.2 160.8c18.4 48 65.6 71.2 120.8 71.2s102.4-23.2 120.8-71.2H43.2z"/><circle style="fill:#0aa06e" cx="164" cy="164" r="63.2"/><path style="fill:#007c56" d="M164 100.8c35.2 0 63.2 28 63.2 63.2s-28 63.2-63.2 63.2"/><circle style="fill:#5e6664" cx="164" cy="164" r="28"/><path style="fill:#2f423f" d="M184 144c11.2 11.2 11.2 28.8 0 39.2-11.2 11.2-28.8 11.2-39.2 0"/><circle style="fill:#fff" cx="146.4" cy="144" r="14.4"/><circle style="fill:#fff" cx="184" cy="182.4" r="6.4"/></svg>